<mxfile host="app.diagrams.net" modified="2022-09-26T10:55:25.943Z" agent="5.0 (Macintosh; Intel Mac OS X 10_15_7) AppleWebKit/537.36 (KHTML, like Gecko) Chrome/105.0.0.0 Safari/537.36" etag="BxQcNPmLoD-z-WiH_4Cu" version="20.3.6" type="github">
  <diagram id="nOM_qMWvI7SmRG-4jjiQ" name="第 1 页">
    <mxGraphModel dx="1210" dy="1161" grid="1" gridSize="10" guides="1" tooltips="1" connect="1" arrows="1" fold="1" page="1" pageScale="1" pageWidth="850" pageHeight="1100" math="0" shadow="0">
      <root>
        <mxCell id="0" />
        <mxCell id="1" parent="0" />
        <mxCell id="yaBNe6Gv_1-j6mTm1Kx--7" style="edgeStyle=orthogonalEdgeStyle;rounded=0;orthogonalLoop=1;jettySize=auto;html=1;exitX=1;exitY=0.5;exitDx=0;exitDy=0;" edge="1" parent="1" source="yaBNe6Gv_1-j6mTm1Kx--1" target="yaBNe6Gv_1-j6mTm1Kx--2">
          <mxGeometry relative="1" as="geometry" />
        </mxCell>
        <mxCell id="yaBNe6Gv_1-j6mTm1Kx--1" value="大宽表清空&lt;br&gt;truncat/drop table" style="rounded=0;whiteSpace=wrap;html=1;" vertex="1" parent="1">
          <mxGeometry x="10" y="520" width="120" height="60" as="geometry" />
        </mxCell>
        <mxCell id="yaBNe6Gv_1-j6mTm1Kx--8" style="edgeStyle=orthogonalEdgeStyle;rounded=0;orthogonalLoop=1;jettySize=auto;html=1;exitX=1;exitY=0.5;exitDx=0;exitDy=0;entryX=0;entryY=0.5;entryDx=0;entryDy=0;" edge="1" parent="1" source="yaBNe6Gv_1-j6mTm1Kx--2" target="yaBNe6Gv_1-j6mTm1Kx--3">
          <mxGeometry relative="1" as="geometry" />
        </mxCell>
        <mxCell id="yaBNe6Gv_1-j6mTm1Kx--2" value="大宽表数据插入&lt;br&gt;insert/create table" style="rounded=0;whiteSpace=wrap;html=1;" vertex="1" parent="1">
          <mxGeometry x="190" y="520" width="120" height="60" as="geometry" />
        </mxCell>
        <mxCell id="yaBNe6Gv_1-j6mTm1Kx--9" style="edgeStyle=orthogonalEdgeStyle;rounded=0;orthogonalLoop=1;jettySize=auto;html=1;exitX=1;exitY=0.5;exitDx=0;exitDy=0;entryX=0;entryY=0.5;entryDx=0;entryDy=0;" edge="1" parent="1" source="yaBNe6Gv_1-j6mTm1Kx--3" target="yaBNe6Gv_1-j6mTm1Kx--5">
          <mxGeometry relative="1" as="geometry" />
        </mxCell>
        <mxCell id="yaBNe6Gv_1-j6mTm1Kx--3" value="分表索引删除/下线&lt;br&gt;alter index/drop index" style="rounded=0;whiteSpace=wrap;html=1;" vertex="1" parent="1">
          <mxGeometry x="370" y="520" width="120" height="60" as="geometry" />
        </mxCell>
        <mxCell id="yaBNe6Gv_1-j6mTm1Kx--4" value="分表数据插入&lt;br&gt;insert/create table" style="rounded=0;whiteSpace=wrap;html=1;" vertex="1" parent="1">
          <mxGeometry x="730" y="520" width="120" height="60" as="geometry" />
        </mxCell>
        <mxCell id="yaBNe6Gv_1-j6mTm1Kx--5" value="分表数据清空&lt;br&gt;truncat/drop table" style="rounded=0;whiteSpace=wrap;html=1;" vertex="1" parent="1">
          <mxGeometry x="550" y="520" width="120" height="60" as="geometry" />
        </mxCell>
        <mxCell id="yaBNe6Gv_1-j6mTm1Kx--6" value="分表索引重建&lt;br&gt;create index/alter index rebuild" style="rounded=0;whiteSpace=wrap;html=1;" vertex="1" parent="1">
          <mxGeometry x="910" y="520" width="120" height="60" as="geometry" />
        </mxCell>
        <mxCell id="yaBNe6Gv_1-j6mTm1Kx--10" style="edgeStyle=orthogonalEdgeStyle;rounded=0;orthogonalLoop=1;jettySize=auto;html=1;exitX=1;exitY=0.5;exitDx=0;exitDy=0;entryX=0;entryY=0.5;entryDx=0;entryDy=0;" edge="1" parent="1" source="yaBNe6Gv_1-j6mTm1Kx--5" target="yaBNe6Gv_1-j6mTm1Kx--4">
          <mxGeometry relative="1" as="geometry">
            <mxPoint x="500" y="560" as="sourcePoint" />
            <mxPoint x="560" y="560" as="targetPoint" />
          </mxGeometry>
        </mxCell>
        <mxCell id="yaBNe6Gv_1-j6mTm1Kx--11" style="edgeStyle=orthogonalEdgeStyle;rounded=0;orthogonalLoop=1;jettySize=auto;html=1;exitX=1;exitY=0.5;exitDx=0;exitDy=0;" edge="1" parent="1" source="yaBNe6Gv_1-j6mTm1Kx--4" target="yaBNe6Gv_1-j6mTm1Kx--6">
          <mxGeometry relative="1" as="geometry">
            <mxPoint x="850" y="550" as="sourcePoint" />
            <mxPoint x="740" y="560" as="targetPoint" />
          </mxGeometry>
        </mxCell>
      </root>
    </mxGraphModel>
  </diagram>
</mxfile>
